<svg xmlns="http://www.w3.org/2000/svg" viewBox="0 0 209.74 60.37"><defs><style>.cls-1{font-size:48px;fill:#212f8e;font-family:Lato-Heavy, Lato;font-weight:800;}.cls-2{letter-spacing:0em;}.cls-3,.cls-4,.cls-5{fill:none;stroke-miterlimit:10;}.cls-3{stroke:#de3489;}.cls-3,.cls-5{stroke-linecap:round;stroke-width:5px;}.cls-4{stroke:#dbdaee;stroke-width:6px;}.cls-5{stroke:#212f8e;}</style></defs><g id="레이어_2" data-name="레이어 2"><g id="레이어_1-2" data-name="레이어 1"><text class="cls-1" transform="translate(66.35 46.38)"><tspan class="cls-2">A</tspan><tspan x="33.67" y="0">rt.zip</tspan></text><path class="cls-3" d="M2.5,18.37,24.51,3a3.08,3.08,0,0,1,3.28,0l22,15.4"/><path class="cls-4" d="M30.78,16.75,12.31,29.81A4.36,4.36,0,0,0,10.68,33v19.9"/><path class="cls-5" d="M26.54,14,8.07,27.08a4.32,4.32,0,0,0-1.63,3.15V49.59a2,2,0,0,0,2,2H20.69a2,2,0,0,0,2-2V43.33a2,2,0,0,1,2-2H28.4a2,2,0,0,1,2,2v6.26a2,2,0,0,0,2,2H44.65a2,2,0,0,0,2-2V30.23A4.35,4.35,0,0,0,45,27.08L26.54,14"/></g></g></svg>