<svg xmlns="http://www.w3.org/2000/svg" viewBox="0 0 252.16 72.71"><defs><style>.cls-1{font-size:57.71px;fill:#212f8e;font-family:Lato-Heavy, Lato;font-weight:800;}.cls-2{letter-spacing:0em;}.cls-3,.cls-4,.cls-5{fill:none;stroke-miterlimit:10;stroke-width:6px;}.cls-3{stroke:#de3489;}.cls-3,.cls-5{stroke-linecap:round;}.cls-4{stroke:#dbdaee;}.cls-5{stroke:#212f8e;}</style></defs><g id="레이어_2" data-name="레이어 2"><g id="레이어_1-2" data-name="레이어 1"><text class="cls-1" transform="translate(79.76 55.89)"><tspan class="cls-2">A</tspan><tspan x="40.48" y="0">rt.zip</tspan></text><path class="cls-3" d="M3,22.22,29.79,3.47a3.08,3.08,0,0,1,3.28,0L59.86,22.22"/><path class="cls-4" d="M37,20.27,14.46,36.2a4.39,4.39,0,0,0-1.63,3.16V63.69"/><path class="cls-5" d="M31.9,17,9.36,32.92a4.35,4.35,0,0,0-1.63,3.15V60.15a2,2,0,0,0,2,2H25.27a2,2,0,0,0,2-2V51.82a2,2,0,0,1,2-2h5.27a2,2,0,0,1,2,2v8.33a2,2,0,0,0,2,2H54.08a2,2,0,0,0,2-2V36.07a4.33,4.33,0,0,0-1.64-3.15L31.9,17"/></g></g></svg>