<svg xmlns="http://www.w3.org/2000/svg" viewBox="0 0 48.59 50.19"><defs><style>.cls-1,.cls-2,.cls-3{fill:none;stroke-miterlimit:10;}.cls-1{stroke:#de3489;}.cls-1,.cls-3{stroke-linecap:round;stroke-width:5px;}.cls-2{stroke:#dbdaee;stroke-width:6px;}.cls-3{stroke:#212f8e;}</style></defs><g id="레이어_2" data-name="레이어 2"><g id="레이어_1-2" data-name="레이어 1"><path class="cls-1" d="M2.5,17.08,22.66,3a3.08,3.08,0,0,1,3.28,0L46.09,17.08"/><path class="cls-2" d="M28.57,15.59,11.67,27.53A4.32,4.32,0,0,0,10,30.68V48.87"/><path class="cls-3" d="M24.66,13.06,7.76,25a4.32,4.32,0,0,0-1.63,3.15V45.69a2,2,0,0,0,2,2h11a2,2,0,0,0,2-2V40.24a2,2,0,0,1,2-2h3.1a2,2,0,0,1,2,2v5.45a2,2,0,0,0,2,2h11a2,2,0,0,0,2-2V28.16A4.32,4.32,0,0,0,41.56,25l-16.9-12"/></g></g></svg>